<?xml version="1.0" encoding="UTF-8"?>
<svg xmlns="http://www.w3.org/2000/svg" width="32" height="32" viewBox="0 0 32 32" fill="none">
  <mask id="mask0_1073_261" style="mask-type:alpha" maskUnits="userSpaceOnUse" x="0" y="0" width="32" height="32">
    <rect width="32" height="32" fill="#D9D9D9"></rect>
  </mask>
  <g mask="url(#mask0_1073_261)">
    <path d="M10.9743 25.0255C10.6076 25.0255 10.2937 24.8949 10.0326 24.6338C9.77147 24.3727 9.6409 24.0588 9.6409 23.6921V21.0254H13.3332V16.6921C12.4871 16.8699 11.62 16.843 10.7319 16.6113C9.84392 16.3797 9.11102 15.9725 8.53324 15.3895V13.5126H6.64094L2.92297 9.79468C3.6888 9.09723 4.55803 8.57586 5.53067 8.23057C6.50332 7.88526 7.50417 7.71261 8.53324 7.71261C9.38768 7.71261 10.2184 7.83398 11.0253 8.07671C11.8323 8.31944 12.6016 8.69979 13.3332 9.21774V6.76904H26.6666V22.3588C26.6666 23.1109 26.4102 23.7434 25.8973 24.2562C25.3845 24.7691 24.752 25.0255 23.9999 25.0255H10.9743ZM14.6666 21.0254H22.6666V22.3588C22.6666 22.7366 22.7943 23.0532 23.0499 23.3088C23.3055 23.5643 23.6221 23.6921 23.9999 23.6921C24.3777 23.6921 24.6943 23.5643 24.9499 23.3088C25.2055 23.0532 25.3332 22.7366 25.3332 22.3588V8.10238H14.6666V10.2357L21.9999 17.569V18.5126H21.0563L16.9999 14.4562L16.2461 15.2101C15.9862 15.4699 15.7311 15.6878 15.4807 15.8639C15.2302 16.04 14.9589 16.1947 14.6666 16.328V21.0254ZM7.21017 12.1793H9.86657V14.7895C10.3213 15.0699 10.7444 15.2605 11.1358 15.3613C11.5272 15.4622 11.9076 15.5126 12.277 15.5126C12.8837 15.5126 13.4354 15.4092 13.9319 15.2024C14.4285 14.9955 14.8939 14.675 15.3281 14.2408L16.0563 13.5126L13.7281 11.1844C13.0149 10.4716 12.2157 9.937 11.3304 9.58058C10.4451 9.22418 9.51273 9.04598 8.53324 9.04598C7.88366 9.04598 7.25204 9.13059 6.63837 9.29981C6.02471 9.46903 5.47514 9.68869 4.98967 9.95878L7.21017 12.1793ZM21.3332 22.3588H10.9743V23.6921H21.7384C21.5862 23.5092 21.4807 23.3039 21.4217 23.0761C21.3627 22.8484 21.3332 22.6093 21.3332 22.3588Z" fill="#B0B0B0"></path>
  </g>
</svg>
