<?xml version="1.0" encoding="UTF-8"?>
<svg xmlns="http://www.w3.org/2000/svg" width="24" height="24" viewBox="0 0 24 24" fill="none">
  <mask id="mask0_1745_1198" style="mask-type:alpha" maskUnits="userSpaceOnUse" x="0" y="0" width="24" height="24">
    <rect x="0.5" y="0.5" width="23" height="23" fill="#D9D9D9" stroke="#FAFAFA"></rect>
  </mask>
  <g mask="url(#mask0_1745_1198)">
    <path d="M12 12.9853L4.0125 7.99307V6.02255L11.9934 11.0106L11.9849 11.0242L12.0066 11.0106L20.0066 6.0106L20.0436 5.9875H20H4H3.95642L3.9875 6.00693V7.97745V8V18V18.0125H4H20H20.0125V18V8V7.97745L19.9934 7.9894L12 12.9853ZM4 19.9875C3.45334 19.9875 2.98568 19.793 2.59634 19.4037C2.207 19.0143 2.0125 18.5467 2.0125 18V6C2.0125 5.45334 2.207 4.98568 2.59634 4.59634C2.98568 4.207 3.45334 4.0125 4 4.0125H20C20.5467 4.0125 21.0143 4.207 21.4037 4.59634C21.793 4.98568 21.9875 5.45334 21.9875 6V18C21.9875 18.5467 21.793 19.0143 21.4037 19.4037C21.0143 19.793 20.5467 19.9875 20 19.9875H4Z" fill="#C7C7C7" stroke="#C7C7C7" stroke-width="0.025"></path>
  </g>
</svg>
