<?xml version="1.0" encoding="UTF-8"?>
<svg xmlns="http://www.w3.org/2000/svg" width="32" height="32" viewBox="0 0 32 32" fill="none">
  <mask id="mask0_1073_285" style="mask-type:alpha" maskUnits="userSpaceOnUse" x="0" y="0" width="32" height="32">
    <rect width="32" height="32" fill="#D9D9D9"></rect>
  </mask>
  <g mask="url(#mask0_1073_285)">
    <path d="M9.74356 28.154C9.18116 28.154 8.70723 27.9613 8.32176 27.5758C7.93627 27.1903 7.74353 26.7164 7.74353 26.154C7.74353 25.5916 7.93627 25.1177 8.32176 24.7322C8.70723 24.3467 9.18116 24.154 9.74356 24.154C10.3059 24.154 10.7799 24.3467 11.1654 24.7322C11.5508 25.1177 11.7436 25.5916 11.7436 26.154C11.7436 26.7164 11.5508 27.1903 11.1654 27.5758C10.7799 27.9613 10.3059 28.154 9.74356 28.154ZM22.2564 28.154C21.694 28.154 21.22 27.9613 20.8346 27.5758C20.4491 27.1903 20.2564 26.7164 20.2564 26.154C20.2564 25.5916 20.4491 25.1177 20.8346 24.7322C21.22 24.3467 21.694 24.154 22.2564 24.154C22.8188 24.154 23.2927 24.3467 23.6782 24.7322C24.0637 25.1177 24.2564 25.5916 24.2564 26.154C24.2564 26.7164 24.0637 27.1903 23.6782 27.5758C23.2927 27.9613 22.8188 28.154 22.2564 28.154ZM7.84099 7.3335L11.4 14.8207H20.2461C20.4 14.8207 20.5367 14.7822 20.6564 14.7053C20.776 14.6284 20.8786 14.5215 20.9641 14.3848L24.4512 8.05143C24.5538 7.86341 24.5624 7.69675 24.4769 7.55146C24.3914 7.40615 24.2461 7.3335 24.041 7.3335H7.84099ZM7.18969 6.00016H24.5487C25.1282 6.00016 25.5641 6.23648 25.8564 6.70913C26.1487 7.18177 26.1641 7.66853 25.9025 8.1694L22.0923 15.113C21.8991 15.4378 21.6483 15.6925 21.3397 15.8771C21.0312 16.0617 20.6923 16.154 20.323 16.154H10.8L9.17946 19.1284C9.0427 19.3335 9.03843 19.5557 9.16663 19.795C9.29483 20.0343 9.48714 20.154 9.74356 20.154H24.2564V21.4874H9.74356C8.96578 21.4874 8.38544 21.1596 8.00253 20.504C7.61962 19.8485 7.61022 19.1899 7.97433 18.5284L9.97943 14.954L5.07686 4.66683H2.66663V3.3335H5.92303L7.18969 6.00016Z" fill="#B0B0B0"></path>
  </g>
</svg>
