<?xml version="1.0" encoding="UTF-8"?>
<svg xmlns="http://www.w3.org/2000/svg" width="32" height="32" viewBox="0 0 32 32" fill="none">
  <mask id="mask0_1073_269" style="mask-type:alpha" maskUnits="userSpaceOnUse" x="0" y="0" width="32" height="32">
    <rect width="32" height="32" fill="#D9D9D9"></rect>
  </mask>
  <g mask="url(#mask0_1073_269)">
    <path d="M16.4616 27.9488C15.0751 27.784 13.6982 27.4222 12.3307 26.8636C10.9632 26.305 9.72436 25.4907 8.61412 24.4206C7.50385 23.3505 6.5812 21.9941 5.84615 20.3513C5.11111 18.7086 4.68376 16.7283 4.56412 14.4103L4.51282 13.3334L5.53848 13.3847C6.46668 13.436 7.56924 13.6702 8.84615 14.0872C10.1231 14.5043 11.2069 15.036 12.0975 15.6821C12.2103 14.0103 12.6235 12.2501 13.3372 10.4014C14.0509 8.55264 14.9385 6.98298 16 5.69238C17.0616 6.98298 17.9492 8.56118 18.6629 10.427C19.3765 12.2928 19.7898 14.0616 19.9026 15.7334C20.7419 15.1385 21.7829 14.6112 23.0257 14.1514C24.2684 13.6915 25.3966 13.436 26.4103 13.3847L27.4872 13.3334L27.4359 14.4616C27.3675 16.3009 27.0812 17.9522 26.577 19.4155C26.0727 20.8787 25.3594 22.1625 24.4372 23.2667C23.515 24.371 22.3919 25.3091 21.068 26.0809C19.744 26.8526 18.2086 27.4753 16.4616 27.9488ZM16.4462 26.6001C16.2017 22.9112 15.1073 20.1223 13.1629 18.2334C11.2184 16.3445 8.80174 15.1779 5.91285 14.7334C6.1573 18.5334 7.28507 21.3667 9.29619 23.2334C11.3073 25.1001 13.6906 26.2223 16.4462 26.6001ZM16 19.877C16.2992 19.3197 16.6834 18.7372 17.1526 18.1295C17.6218 17.5219 18.1043 17.012 18.6 16.6001C18.5898 15.2308 18.3568 13.8018 17.9013 12.3129C17.4457 10.824 16.812 9.39836 16 8.03598C15.1881 9.39836 14.5543 10.824 14.0988 12.3129C13.6432 13.8018 13.4103 15.2308 13.4 16.6001C13.8958 17.012 14.3752 17.5219 14.8385 18.1295C15.3017 18.7372 15.6889 19.3197 16 19.877ZM17.7795 26.1539C18.824 25.8018 19.8248 25.336 20.7821 24.7565C21.7394 24.177 22.597 23.4355 23.3552 22.5321C24.1133 21.6287 24.7346 20.5385 25.2193 19.2616C25.7039 17.9847 25.9932 16.4753 26.0872 14.7334C23.9299 15.0445 22.0111 15.8031 20.3308 17.0091C18.6505 18.215 17.4393 19.6941 16.6975 21.4462C16.9641 22.1574 17.1834 22.8753 17.3552 23.6001C17.527 24.3249 17.6684 25.1761 17.7795 26.1539Z" fill="#B0B0B0"></path>
  </g>
</svg>
