<?xml version="1.0" encoding="UTF-8"?>
<svg xmlns="http://www.w3.org/2000/svg" width="32" height="32" viewBox="0 0 32 32" fill="none">
  <g clip-path="url(#clip0_1370_3457)">
    <path d="M27.2626 8.14133C27.5786 8.29953 27.8189 8.57672 27.9307 8.91198C28.0424 9.24725 28.0165 9.61317 27.8586 9.92933C27.388 10.872 26.5253 11.6973 25.656 12.276C25.268 12.5347 24.8293 12.7773 24.368 12.9653C24.7546 13.912 25.0333 14.932 25.1893 16H28C28.3536 16 28.6927 16.1405 28.9428 16.3905C29.1928 16.6406 29.3333 16.9797 29.3333 17.3333C29.3333 17.687 29.1928 18.0261 28.9428 18.2761C28.6927 18.5262 28.3536 18.6667 28 18.6667H25.3173C25.2448 20.1909 24.911 21.6914 24.3306 23.1027C25.0933 23.5427 25.6146 24.2493 25.9426 24.9027C26.4077 25.8697 26.6548 26.927 26.6666 28C26.6662 28.3398 26.5361 28.6667 26.3028 28.9138C26.0695 29.1609 25.7507 29.3096 25.4114 29.3296C25.0722 29.3495 24.7381 29.2391 24.4775 29.021C24.2169 28.8029 24.0494 28.4935 24.0093 28.156L24 28C24 27.5013 23.8653 26.712 23.5573 26.096C23.384 25.7493 23.2106 25.5507 23.044 25.444C21.3733 27.792 18.9026 29.3333 16 29.3333C13.0973 29.3333 10.6266 27.792 8.95596 25.444C8.78796 25.5507 8.61596 25.7507 8.44263 26.0973C8.16303 26.6934 8.01219 27.3417 7.99996 28C7.99996 28.3536 7.85948 28.6928 7.60943 28.9428C7.35939 29.1929 7.02025 29.3333 6.66663 29.3333C6.313 29.3333 5.97387 29.1929 5.72382 28.9428C5.47377 28.6928 5.33329 28.3536 5.33329 28C5.34531 26.9275 5.59245 25.8706 6.05729 24.904C6.38529 24.248 6.90663 23.544 7.66929 23.104C7.08871 21.6923 6.75496 20.1914 6.68263 18.6667H3.99996C3.64634 18.6667 3.3072 18.5262 3.05715 18.2761C2.8071 18.0261 2.66663 17.687 2.66663 17.3333C2.66663 16.9797 2.8071 16.6406 3.05715 16.3905C3.3072 16.1405 3.64634 16 3.99996 16H6.81063C6.96102 14.959 7.2368 13.9401 7.63196 12.9653C7.18068 12.7791 6.7492 12.5482 6.34396 12.276C5.47596 11.6973 4.61063 10.872 4.14129 9.92933C3.99031 9.62531 3.96097 9.27515 4.05926 8.95024C4.15754 8.62533 4.37604 8.35014 4.67022 8.18078C4.9644 8.01141 5.3121 7.96063 5.64243 8.03877C5.97276 8.11692 6.26085 8.31811 6.44796 8.60133L6.52529 8.73733C6.72129 9.128 7.19196 9.636 7.82263 10.0573C8.47063 10.4893 9.04129 10.6667 9.33329 10.6667H22.6666C22.9586 10.6667 23.5293 10.4893 24.1773 10.0573C24.7306 9.688 25.1586 9.25333 25.388 8.88933L25.4746 8.73733C25.6328 8.42132 25.91 8.18103 26.2453 8.06928C26.5805 7.95752 26.9465 7.98344 27.2626 8.14133ZM21.6106 13.3333H10.3893C9.72529 14.672 9.33329 16.2693 9.33329 18C9.33329 22.412 11.7826 25.6973 14.6666 26.4853V17.3333C14.6666 16.9797 14.8071 16.6406 15.0571 16.3905C15.3072 16.1405 15.6463 16 16 16C16.3536 16 16.6927 16.1405 16.9428 16.3905C17.1928 16.6406 17.3333 16.9797 17.3333 17.3333V26.4853C20.2173 25.6973 22.6666 22.412 22.6666 18C22.6666 16.2693 22.2746 14.672 21.6106 13.3333ZM16 4C17.1702 3.99976 18.3199 4.3077 19.3334 4.89285C20.3469 5.478 21.1884 6.31972 21.7733 7.33333L22.9333 9.33333H9.06663L10.2253 7.33333C10.8103 6.31952 11.652 5.47768 12.6658 4.89252C13.6795 4.30736 14.8295 3.99953 16 4Z" fill="#0EBAB1"></path>
  </g>
  <defs>
    <clipPath id="clip0_1370_3457">
      <rect width="32" height="32" fill="white"></rect>
    </clipPath>
  </defs>
</svg>
