<?xml version="1.0" encoding="UTF-8"?>
<svg xmlns="http://www.w3.org/2000/svg" width="32" height="32" viewBox="0 0 32 32" fill="none">
  <mask id="mask0_2063_1262" style="mask-type:alpha" maskUnits="userSpaceOnUse" x="0" y="0" width="32" height="32">
    <rect width="32" height="32" fill="#D9D9D9"></rect>
  </mask>
  <g mask="url(#mask0_2063_1262)">
    <path d="M6.29998 26C5.1205 26 4.12263 25.5906 3.30638 24.7718C2.49016 23.953 2.07692 22.9477 2.06665 21.756C2.06665 21.5802 2.07348 21.4094 2.08715 21.2436C2.10084 21.0778 2.12991 20.9034 2.17435 20.7205L4.97435 9.5205C5.24686 8.47308 5.80162 7.62448 6.63862 6.9747C7.47562 6.3249 8.42941 6 9.49998 6H22.5C23.5706 6 24.5244 6.3249 25.3614 6.9747C26.1984 7.62448 26.7531 8.47308 27.0256 9.5205L29.8256 20.7205C29.8701 20.9034 29.9047 21.0833 29.9295 21.2603C29.9543 21.4372 29.9667 21.6135 29.9667 21.7894C29.9667 22.9811 29.5517 23.9808 28.7218 24.7885C27.8919 25.5962 26.8852 26 25.7017 26C24.8869 26 24.1393 25.7855 23.459 25.3564C22.7786 24.9274 22.2555 24.3504 21.8897 23.6256L20.9308 21.6667C20.7684 21.3333 20.5248 21.0833 20.2 20.9167C19.8752 20.75 19.5308 20.6667 19.1667 20.6667H12.8333C12.4736 20.6667 12.1303 20.7479 11.8033 20.9103C11.4763 21.0726 11.2316 21.3248 11.0692 21.6667L10.1103 23.6256C9.76152 24.3675 9.24114 24.9487 8.54912 25.3692C7.85707 25.7897 7.10736 26 6.29998 26ZM6.40692 24.6667C6.94418 24.6667 7.4406 24.5214 7.89615 24.2308C8.35171 23.9402 8.69401 23.5547 8.92305 23.0744L9.85638 21.1487C10.137 20.5803 10.5487 20.1356 11.0913 19.8147C11.6338 19.4938 12.2145 19.3333 12.8333 19.3333H19.1667C19.7959 19.3333 20.3788 19.5034 20.9155 19.8436C21.4522 20.1838 21.8726 20.6273 22.1769 21.1744L23.1103 23.0744C23.3393 23.5547 23.6816 23.9402 24.1372 24.2308C24.5927 24.5214 25.0951 24.6667 25.6442 24.6667C26.4535 24.6667 27.1472 24.3927 27.7252 23.8449C28.3033 23.297 28.5949 22.6265 28.6 21.8333C28.6 21.7872 28.5692 21.5248 28.5077 21.0462L25.7077 9.8795C25.5179 9.14274 25.1256 8.53419 24.5308 8.05383C23.9359 7.5735 23.259 7.33333 22.5 7.33333H9.49998C8.72272 7.33333 8.03566 7.5735 7.43882 8.05383C6.842 8.53419 6.45982 9.14274 6.29228 9.8795L3.49228 21.0462C3.46495 21.1453 3.43418 21.3966 3.39998 21.8C3.39998 22.6108 3.69614 23.2912 4.28845 23.8414C4.88076 24.3916 5.58692 24.6667 6.40692 24.6667ZM18 14.359C18.2752 14.359 18.515 14.2568 18.7192 14.0526C18.9235 13.8483 19.0256 13.6086 19.0256 13.3333C19.0256 13.0581 18.9235 12.8184 18.7192 12.6141C18.515 12.4098 18.2752 12.3077 18 12.3077C17.7248 12.3077 17.485 12.4098 17.2808 12.6141C17.0765 12.8184 16.9744 13.0581 16.9744 13.3333C16.9744 13.6086 17.0765 13.8483 17.2808 14.0526C17.485 14.2568 17.7248 14.359 18 14.359ZM20.6667 11.6923C20.9419 11.6923 21.1816 11.5902 21.3859 11.3859C21.5902 11.1816 21.6923 10.9419 21.6923 10.6667C21.6923 10.3914 21.5902 10.1517 21.3859 9.94743C21.1816 9.74317 20.9419 9.64103 20.6667 9.64103C20.3914 9.64103 20.1517 9.74317 19.9474 9.94743C19.7432 10.1517 19.641 10.3914 19.641 10.6667C19.641 10.9419 19.7432 11.1816 19.9474 11.3859C20.1517 11.5902 20.3914 11.6923 20.6667 11.6923ZM20.6667 17.0256C20.9419 17.0256 21.1816 16.9235 21.3859 16.7192C21.5902 16.515 21.6923 16.2752 21.6923 16C21.6923 15.7248 21.5902 15.485 21.3859 15.2808C21.1816 15.0765 20.9419 14.9744 20.6667 14.9744C20.3914 14.9744 20.1517 15.0765 19.9474 15.2808C19.7432 15.485 19.641 15.7248 19.641 16C19.641 16.2752 19.7432 16.515 19.9474 16.7192C20.1517 16.9235 20.3914 17.0256 20.6667 17.0256ZM23.3333 14.359C23.6085 14.359 23.8483 14.2568 24.0526 14.0526C24.2568 13.8483 24.359 13.6086 24.359 13.3333C24.359 13.0581 24.2568 12.8184 24.0526 12.6141C23.8483 12.4098 23.6085 12.3077 23.3333 12.3077C23.0581 12.3077 22.8184 12.4098 22.6141 12.6141C22.4098 12.8184 22.3077 13.0581 22.3077 13.3333C22.3077 13.6086 22.4098 13.8483 22.6141 14.0526C22.8184 14.2568 23.0581 14.359 23.3333 14.359ZM11.3321 16.2564C11.5021 16.2564 11.6431 16.2007 11.7551 16.0893C11.8671 15.9779 11.9231 15.837 11.9231 15.6667V13.9231H13.6667C13.837 13.9231 13.9779 13.8675 14.0893 13.7563C14.2007 13.6452 14.2564 13.5046 14.2564 13.3345C14.2564 13.1645 14.2007 13.0235 14.0893 12.9115C13.9779 12.7996 13.837 12.7436 13.6667 12.7436H11.9231V11C11.9231 10.8296 11.8675 10.6887 11.7563 10.5773C11.6451 10.466 11.5045 10.4103 11.3345 10.4103C11.1645 10.4103 11.0235 10.466 10.9115 10.5773C10.7996 10.6887 10.7436 10.8296 10.7436 11V12.7436H8.99998C8.82961 12.7436 8.68872 12.7992 8.57732 12.9103C8.46594 13.0215 8.41025 13.1621 8.41025 13.3321C8.41025 13.5022 8.46594 13.6432 8.57732 13.7551C8.68872 13.8671 8.82961 13.9231 8.99998 13.9231H10.7436V15.6667C10.7436 15.837 10.7992 15.9779 10.9103 16.0893C11.0215 16.2007 11.1621 16.2564 11.3321 16.2564Z" fill="#B0B0B0"></path>
  </g>
</svg>
