<?xml version="1.0" encoding="UTF-8"?>
<svg xmlns="http://www.w3.org/2000/svg" width="20" height="20" viewBox="0 0 20 20" fill="none">
  <path d="M14.9999 3.33331H4.99992C4.07944 3.33331 3.33325 4.07951 3.33325 4.99998V15C3.33325 15.9205 4.07944 16.6666 4.99992 16.6666H14.9999C15.9204 16.6666 16.6666 15.9205 16.6666 15V4.99998C16.6666 4.07951 15.9204 3.33331 14.9999 3.33331Z" stroke="#FAFAFA" stroke-linecap="round" stroke-linejoin="round"></path>
  <path d="M6.66675 9.16669V13.3334" stroke="#FAFAFA" stroke-linecap="round" stroke-linejoin="round"></path>
  <path d="M6.66675 6.66669V6.67502" stroke="#FAFAFA" stroke-linecap="round" stroke-linejoin="round"></path>
  <path d="M10 13.3334V9.16669" stroke="#FAFAFA" stroke-linecap="round" stroke-linejoin="round"></path>
  <path d="M13.3333 13.3334V10.8334C13.3333 10.3913 13.1577 9.9674 12.8452 9.65484C12.5326 9.34228 12.1087 9.16669 11.6667 9.16669C11.2246 9.16669 10.8007 9.34228 10.4882 9.65484C10.1756 9.9674 10 10.3913 10 10.8334" stroke="#FAFAFA" stroke-linecap="round" stroke-linejoin="round"></path>
</svg>
