<?xml version="1.0" encoding="UTF-8"?>
<svg xmlns="http://www.w3.org/2000/svg" width="20" height="20" viewBox="0 0 20 20" fill="none">
  <path d="M13.3333 3.33331H6.66659C4.82564 3.33331 3.33325 4.8257 3.33325 6.66665V13.3333C3.33325 15.1743 4.82564 16.6666 6.66659 16.6666H13.3333C15.1742 16.6666 16.6666 15.1743 16.6666 13.3333V6.66665C16.6666 4.8257 15.1742 3.33331 13.3333 3.33331Z" stroke="#FAFAFA" stroke-linecap="round" stroke-linejoin="round"></path>
  <path d="M10 12.5C11.3807 12.5 12.5 11.3807 12.5 10C12.5 8.61929 11.3807 7.5 10 7.5C8.61929 7.5 7.5 8.61929 7.5 10C7.5 11.3807 8.61929 12.5 10 12.5Z" stroke="#FAFAFA" stroke-linecap="round" stroke-linejoin="round"></path>
  <path d="M13.75 6.25V6.25083" stroke="#FAFAFA" stroke-linecap="round" stroke-linejoin="round"></path>
</svg>
